<svg width="26" height="22" viewBox="0 0 26 22" fill="none" xmlns="http://www.w3.org/2000/svg">
<path d="M26 2.93675C25.0434 3.36142 24.0153 3.64742 22.9363 3.77633C24.0381 3.11658 24.8842 2.07117 25.2818 0.825333C24.2515 1.43633 23.1097 1.8805 21.8942 2.11992C20.9224 1.08317 19.5347 0.435333 18.0007 0.435333C14.5567 0.435333 12.0261 3.6485 12.8039 6.98408C8.372 6.762 4.44167 4.63867 1.81025 1.41142C0.41275 3.80883 1.0855 6.94508 3.46017 8.53325C2.587 8.50508 1.76367 8.26567 1.04542 7.86592C0.986917 10.337 2.75817 12.6488 5.3235 13.1634C4.57275 13.3671 3.7505 13.4148 2.91417 13.2544C3.59233 15.3734 5.56183 16.915 7.8975 16.9583C5.655 18.7166 2.82967 19.502 0 19.1683C2.36058 20.6818 5.16533 21.5647 8.177 21.5647C18.0808 21.5647 23.6763 13.2003 23.3382 5.69817C24.3804 4.94525 25.285 4.006 26 2.93675Z" fill="white"/>
</svg>
