<svg width="26" height="22" viewBox="0 0 26 22" fill="none" xmlns="http://www.w3.org/2000/svg">
<path d="M26 2.93678C25.0434 3.36145 24.0153 3.64745 22.9363 3.77636C24.0381 3.11661 24.8842 2.0712 25.2818 0.825364C24.2515 1.43636 23.1097 1.88053 21.8942 2.11995C20.9224 1.0832 19.5347 0.435364 18.0007 0.435364C14.5567 0.435364 12.0261 3.64853 12.8039 6.98411C8.372 6.76203 4.44167 4.6387 1.81025 1.41145C0.41275 3.80886 1.0855 6.94511 3.46017 8.53328C2.587 8.50511 1.76367 8.2657 1.04542 7.86595C0.986917 10.337 2.75817 12.6489 5.3235 13.1634C4.57275 13.3671 3.7505 13.4148 2.91417 13.2544C3.59233 15.3734 5.56183 16.915 7.8975 16.9584C5.655 18.7166 2.82967 19.502 0 19.1684C2.36058 20.6818 5.16533 21.5647 8.177 21.5647C18.0808 21.5647 23.6763 13.2003 23.3382 5.6982C24.3804 4.94528 25.285 4.00603 26 2.93678Z" fill="black"/>
</svg>
